<svg width="150" height="139" viewBox="0 0 150 139" fill="none" xmlns="http://www.w3.org/2000/svg">
<g clip-path="url(#clip0_525_799)">
<path d="M5.01953 73.2922C11.4565 73.1344 15.9452 73.1542 25.335 73.2922C33.1594 73.1739 31.8204 74.9694 32.0566 84.8323C32.1426 84.8167 32.5284 84.7459 33.9961 84.4768C39.8819 83.4017 46.2009 80.3837 51.4863 80.7092C51.565 80.7092 51.6342 80.7189 51.7129 80.7288C62.569 82.2871 73.2481 86.2027 84.0156 89.2405C84.3207 89.3292 92.3622 83.234 101.122 79.5354C106.919 77.0896 112.706 78.3715 114.547 79.9495C115.246 80.5412 115.237 81.2119 115.955 80.6497C121.349 76.4582 128.681 75.7684 133.238 80.3645C133.74 80.8771 134.488 81.0149 135.177 80.7981C139.685 79.4074 145.68 82.9585 147.953 85.7004C149.262 87.2685 150 89.3984 150 91.2327C150 93.5406 149.055 95.6322 147.638 97.3977V97.4172C145.551 100.011 141.762 102.675 138.829 104.687C123.406 115.26 108.956 125.715 92.7754 134.937C87.1655 138.132 85.9742 138.99 75.207 136.948L57.208 133.226L32.0859 133.43C31.7792 137.832 30.2946 138.987 24.3311 138.98H4.91113C4.7931 138.98 4.66489 138.98 4.54688 138.96C1.72233 138.467 0.21622 136.908 0.0390625 134.236L0 79.8411C0.0591056 75.6692 1.50593 73.3811 5.01953 73.2922ZM5.01953 133.624H26.7715V78.1252H5.01953V133.624ZM32.126 128.032C32.1622 130.223 32.1857 131.998 32.0859 133.43L57.208 133.226L34.0947 128.447L32.126 128.032ZM125.335 82.2083C123.898 82.1392 122.549 82.514 121.417 83.1946L106.742 92.0022C105.945 92.4756 104.922 92.3079 104.321 91.5979L102.864 89.8821C102.333 89.2607 104.311 87.6331 105.02 87.1399L107.195 85.6311C108.719 84.5763 94.124 88.8069 94.124 88.8069C92.7757 89.6551 93.0021 91.706 94.5176 92.219C98.7006 93.6393 102.235 95.583 104.577 99.262C107.106 103.227 106.093 108.868 103.563 112.182C101.034 115.496 96.7224 117.41 91.8799 116.808L64.7539 113.396C63.6712 113.258 61.8801 110.723 62.4805 110.062C63.0809 109.401 65.187 108.356 66.1221 108.474L93.1787 111.827C96.909 112.291 100.177 109.292 101.004 106.018C101.604 103.651 99.262 99.0445 96.0928 98.137L52.3428 85.5227C52.0278 85.4339 51.6832 85.4243 51.3584 85.5032L33.3066 89.9612C32.4605 90.1685 31.8605 90.9274 31.8604 91.8049L31.8408 121.198C31.841 122.105 32.4805 122.893 33.376 123.061L83.543 133.013H83.5244C83.9277 133.092 84.3508 133.042 84.7246 132.855C91.3288 129.649 97.5104 126.731 103.071 122.973L142.579 96.2727C146.112 93.0377 145.078 89.586 143.543 87.8206C141.535 85.5226 137.687 84.8814 135.227 86.3508L113.897 99.0647C113.1 99.5379 112.077 99.3702 111.477 98.6604C110.207 97.1612 110.542 95.099 112.225 94.093L126.171 85.7395C127.765 84.7828 127.195 82.2874 125.335 82.2083Z" fill="black"/>
<path d="M105 10.8692C107.156 18.5821 104.045 24.8352 99.7146 30.1909L73.0119 63.242L42.4902 25.7722C39.2717 21.827 38.9174 15.6626 40.7382 10.6226C42.0571 6.95352 46.6831 2.52501 51.5847 0.858157C59.5473 -1.85418 67.0178 2.65323 72.6674 8.73874C76.7126 5.79955 81.5945 2.31789 86.4961 0.670759C94.0945 -1.89364 102.845 3.18584 104.99 10.8692H105ZM91.2008 5.37543C84.9902 4.99078 79.4981 10.3267 72.6772 16.0571C68.5926 9.88285 62.8544 4.81324 55.2067 5.44448C50.7087 5.81927 46.6044 8.94586 45.1378 12.7826C43.7894 16.3234 44.7638 20.9393 47.4213 24.1941L73.0611 55.5192L98.1103 24.204C99.7737 22.1229 100.659 19.5092 100.797 16.8363C101.112 11.0467 96.9784 5.75023 91.2008 5.3853V5.37543Z" fill="black"/>
</g>
<defs>
<clipPath id="clip0_525_799">
<rect width="150" height="139" fill="white"/>
</clipPath>
</defs>
</svg>
