<svg width="150" height="142" viewBox="0 0 150 142" fill="none" xmlns="http://www.w3.org/2000/svg">
<g clip-path="url(#clip0_525_800)">
<path d="M57.5785 57.546V40.2734H40.4821L40.4624 17.125H57.5785V0H80.9447V17.125H97.8837V40.2734L80.7872 40.3127L80.9447 57.546H57.5785ZM74.9998 51.7983V34.4666L92.2439 34.5552V22.8334H74.9998V5.38356H63.553V22.8334H46.1317V34.5552L63.6317 34.6044L63.5726 51.7983H74.99H74.9998Z" fill="black"/>
<path d="M5.01953 76.4331C11.4565 76.2756 15.9452 76.2953 25.335 76.4331C33.1594 76.3151 31.8205 78.1061 32.0566 87.9478C32.0437 87.9501 31.7275 88.0083 33.9961 87.5933C39.8819 86.5205 46.2009 83.5097 51.4863 83.8345C51.565 83.8345 51.6342 83.8442 51.7129 83.854C62.569 85.4091 73.2481 89.3159 84.0156 92.3472C84.3207 92.4357 92.3622 86.3533 101.122 82.6626C106.919 80.2218 112.706 81.502 114.547 83.0767C115.246 83.6672 115.237 84.3359 115.955 83.7749C121.349 79.5922 128.681 78.9035 133.238 83.4897C133.74 84.0013 134.488 84.1387 135.177 83.9224C139.685 82.5346 145.68 86.0779 147.953 88.814C149.262 90.3788 150 92.5049 150 94.3354C150 96.6385 149.055 98.7251 147.638 100.487V100.506C145.551 103.095 141.762 105.753 138.829 107.76C123.406 118.311 108.956 128.743 92.7754 137.945C87.1652 141.134 85.9745 141.99 75.207 139.953L57.21 136.239L32.0859 136.442C31.7792 140.835 30.2947 141.987 24.3311 141.98H4.91113C4.7931 141.98 4.66489 141.98 4.54688 141.96C1.72238 141.468 0.216261 139.914 0.0390625 137.247L0 82.9683C0.0590542 78.8052 1.50587 76.5217 5.01953 76.4331ZM5.01953 136.636H26.7715V81.2554H5.01953V136.636ZM32.126 131.056C32.1622 133.242 32.1857 135.013 32.0859 136.442L57.209 136.239L34.0947 131.469L32.126 131.056ZM125.335 85.3296C123.898 85.2607 122.549 85.6349 121.417 86.314L106.742 95.103C105.945 95.5754 104.922 95.4081 104.321 94.6997L102.864 92.9868C102.333 92.3668 104.311 90.7438 105.02 90.2515L107.195 88.7456C108.72 87.6927 94.124 91.9146 94.124 91.9146C92.7757 92.761 93.0019 94.808 94.5176 95.3198C98.7006 96.7371 102.235 98.6761 104.577 102.347C107.106 106.304 106.093 111.933 103.563 115.24C101.034 118.547 96.7224 120.456 91.8799 119.856L64.7539 116.451C63.6712 116.313 61.8801 113.783 62.4805 113.124C63.0811 112.464 65.1871 111.421 66.1221 111.54L93.1787 114.885C96.909 115.348 100.177 112.356 101.004 109.088C101.604 106.726 99.2618 102.131 96.0928 101.225L52.3428 88.6372C52.0278 88.5486 51.6832 88.5389 51.3584 88.6177L33.3066 93.0659C32.4604 93.2728 31.8604 94.031 31.8604 94.9067L31.8408 124.235C31.8408 125.14 32.4803 125.928 33.376 126.095L83.543 136.026H83.5234C83.927 136.105 84.3506 136.056 84.7246 135.869C91.3289 132.67 97.5103 129.757 103.071 126.007L142.579 99.3647C146.112 96.1366 145.078 92.6919 143.543 90.9302C141.535 88.6372 137.687 87.9971 135.227 89.4634L113.897 102.15C113.1 102.622 112.077 102.455 111.477 101.747C110.207 100.251 110.542 98.1938 112.225 97.1899L126.171 88.853C127.765 87.8984 127.195 85.4086 125.335 85.3296Z" fill="black"/>
</g>
<defs>
<clipPath id="clip0_525_800">
<rect width="150" height="142" fill="white"/>
</clipPath>
</defs>
</svg>
