<svg width="150" height="143" viewBox="0 0 150 143" fill="none" xmlns="http://www.w3.org/2000/svg">
<g clip-path="url(#clip0_525_801)">
<path d="M76.7853 0.419093C77.4383 0.511094 78.0913 0.633761 78.734 0.807541C96.5275 5.59159 108.301 21.6508 106.496 40.1532C104.669 58.809 88.8551 72.9567 69.6026 72.2922C51.503 71.6584 35.8521 57.3472 35.0665 37.8123C34.3625 20.5059 46.8098 4.27291 64.4401 0.562205C68.2151 -0.12269 72.3165 -0.194246 76.7853 0.419093ZM101.894 38.5074C103.078 19.7597 87.641 4.29335 68.9088 5.48936C53.4824 6.4707 40.9535 19.0135 39.9842 34.4696C38.8007 53.2174 54.2374 68.6837 72.9695 67.4877C88.396 66.5064 100.925 53.9636 101.894 38.5074Z" fill="black"/>
<path d="M74.0714 43.588L63.9503 43.8947C66.0113 47.861 69.6434 50.1917 73.8368 49.885C81.9989 49.2921 81.9377 39.9489 86.1004 39.7342C90.4161 39.5196 85.9882 53.4935 73.8266 54.8633C67.6029 55.5584 61.2976 49.9974 59.1653 45.3361C59.0326 45.0498 58.747 44.2218 58.747 44.2218L57.7879 44.2014C57.7879 44.2014 55.4107 44.1503 53.7987 44.1912C51.9826 44.2321 50.9521 43.3325 51.0541 41.2267C51.0847 40.5418 50.9113 39.9387 51.8091 39.3356C52.7784 38.6916 57.2778 38.7529 57.2778 38.7529C57.2778 38.7529 57.4002 38.9778 57.39 36.7493C57.39 35.0524 57.4104 34.204 57.4104 34.204C56.6146 34.1733 53.0131 34.2755 52.105 33.9791C51.095 33.652 50.8603 33.0795 50.9113 31.9755C50.9623 30.8715 50.697 30.0435 51.7173 29.4608C52.5437 28.9906 58.4103 29.0724 58.4103 29.0724C58.4103 29.0724 59.7774 27.0074 60.0631 26.4657C63.2055 20.4856 68.5824 17.7154 74.8876 18.3798C82.9274 19.2283 89.753 29.1439 87.039 32.7831C83.9986 36.872 82.5192 24.5439 74.5101 23.2252C70.0924 22.4994 65.6644 24.9937 64.1238 29.1132L74.1734 29.3688C74.6836 29.379 75.459 30.023 75.9793 30.7079C76.4078 31.2702 76.6731 31.8733 76.4792 32.1902C76.3058 32.4764 75.8773 32.8444 75.3876 33.1715C74.6734 33.6417 73.8061 34.0506 73.296 34.0506H62.1751V38.7529L73.8368 38.8551C74.7244 38.8551 76.5405 40.3987 76.5711 41.1858C76.6017 41.9729 74.9386 43.5472 74.0408 43.5778L74.0714 43.588Z" fill="black"/>
<path d="M0 136.948V80.6746C0.601959 78.0781 2.18338 76.7084 4.69324 76.5039L26.3127 76.8515C31.4753 76.9332 32.2303 84.1604 31.7508 88.3822C38.5356 87.4009 45.7285 83.5369 52.0541 84.4262C62.9608 85.9493 72.6942 89.5885 83.3662 92.4916L100.323 82.1671C105.027 79.3048 110.638 80.0817 114.76 84.7124C120.524 79.5195 127.901 78.8346 133.257 84.6102C139.716 82.4431 145.807 85.1827 148.102 90.7129C150.122 96.1614 148.123 101.559 143.103 104.983C128.931 114.654 91.2325 141.804 82.3969 140.639C64.7055 138.298 48.6668 134.444 31.6181 131.04C32.3731 136.09 30.6489 140.956 26.2515 141.395C18.8852 142.131 11.3862 141.947 4.04027 141.467C1.41817 141.221 0.0510135 139.749 0 136.969L0 136.948ZM26.7004 136.325L26.5168 81.6866L4.97891 81.932L5.05033 136.591L26.7004 136.325ZM82.9785 136.09C88.743 133.912 94.7116 131.05 99.3538 127.963L140.797 100.434C143.878 98.3899 144.99 94.485 142.511 91.1423C140.858 88.9138 137.226 88.1676 133.849 90.1711L113.148 102.448C112.352 102.918 109.342 101.773 109.301 100.874C109.271 100.138 110.077 98.4717 110.74 98.073L128.472 87.4009C126.534 85.4382 123.646 85.0498 121.269 86.4502L105.679 95.6299C104.924 96.0797 102.455 95.0472 102.374 94.2601C102.292 93.473 103.037 91.4387 103.67 91.0298L110.128 86.808C108.332 85.5813 104.71 85.244 102.853 86.3991L90.1408 94.3214C95.9665 96.2943 100.639 97.6539 103.976 102.377C106.2 105.525 105.496 111.618 103.598 114.49C102.037 116.851 97.8234 120.542 94.2117 120.123L64.6137 116.667C63.3689 116.524 61.5528 114.204 62.012 113.417C62.4711 112.63 64.5728 111.607 65.5115 111.72L93.375 115.073C96.8031 115.482 100.15 111.73 100.435 109.011C100.69 106.578 98.5274 102.489 95.6911 101.589C80.6625 96.877 66.593 92.7676 51.1257 88.8525L31.6079 93.7694L31.6998 125.939L82.9785 136.09Z" fill="black"/>
</g>
<defs>
<clipPath id="clip0_525_801">
<rect width="150" height="143" fill="white"/>
</clipPath>
</defs>
</svg>
