<svg width="150" height="150" viewBox="0 0 150 150" fill="none" xmlns="http://www.w3.org/2000/svg">
<path d="M130.113 0C131.187 0.697078 131.643 1.49832 131.643 2.9726V64.2193L136.427 69.1469C140.281 73.706 141.995 79.6832 141.739 85.6445C141.395 93.6729 136.819 100.459 129.777 104.041L126.251 105.836L90.1633 141.875C80.6446 151.386 64.0108 152.5 53.1781 144.351C48.3707 148.045 42.77 149.519 36.9129 149.776C21.0324 150.449 8.02827 138.158 8.50901 122.141C8.3087 114.802 10.9047 107.711 16.2009 102.414L44.717 73.8662V2.98061C44.717 1.48229 45.1417 0.729128 46.3195 0H130.105H130.113ZM93.0157 4.83948H49.5485V14.4944H93.0157V4.83948ZM126.82 4.83948H97.8472V14.4944H126.82V4.83948ZM49.5405 19.3179V24.1574H93.0157V19.3179H49.5405ZM97.8552 19.3179V24.1574H126.828V19.3179H97.8552ZM87.2868 103.785C81.3016 98.6726 78.329 91.7419 78.5453 84.2183C78.4732 78.1689 80.4362 72.5362 84.4024 68.0492L93.0157 59.3879V28.9728H49.5405V74.8197C49.3722 75.5569 49.1719 76.0376 48.7713 76.5905L23.4762 101.886C31.7449 102.919 38.7798 106.653 44.6289 112.382C50.8545 118.479 55.1251 125.899 56.335 134.728L87.2868 103.777V103.785ZM90.1072 134.512L121.051 103.777C115.01 98.6245 112.053 91.4294 112.31 83.6173C112.518 77.3196 114.641 71.5106 119.136 67.0878L126.82 59.3398V28.9648L97.8392 28.9808V64.2674L102.366 68.9627C106.076 73.3615 107.39 78.8099 107.278 84.5147C107.118 92.4951 103.199 99.6501 96.1886 103.52C94.8105 104.281 93.0718 104.962 91.7978 105.812L81.6381 115.883C86.2132 121.252 89.0736 127.509 90.1072 134.52V134.512ZM92.4789 100.251C98.9529 97.3025 102.743 91.4615 102.959 84.5147C103.135 78.9221 101.164 73.9864 97.0299 70.1886L93.0878 66.1022L88.5448 70.7254C84.9713 74.363 83.529 79.4108 83.6092 84.4987C83.4569 90.6522 85.9408 96.1327 90.5639 100.091C90.7242 100.323 91.1648 100.94 91.3892 100.82L92.4869 100.251H92.4789ZM124.929 101.197L128.927 98.8248C138.085 93.3924 138.43 78.6977 132.333 72.3038L126.66 66.3586L121.716 71.4225C115.402 78.6256 115.915 91.7579 121.452 97.5589L124.929 101.197ZM51.9362 139.015C51.9682 130.025 47.938 122.429 41.8486 116.332C35.7191 110.194 27.915 106.172 19.1334 106.284C14.8949 110.587 13.3645 116.284 13.2604 122.165C13.028 135.025 22.8592 145.04 35.7271 144.944C41.6963 144.896 47.4973 143.31 51.9362 139.015ZM85.7645 138.999C85.6764 131.652 83.0403 124.953 78.5133 119.569L56.8478 141.226C65.0925 146.867 78.7937 146.098 85.7645 138.999Z" fill="black"/>
</svg>
